<svg xmlns="http://www.w3.org/2000/svg" xmlns:xlink="http://www.w3.org/1999/xlink" width="59" height="59" viewBox="0 0 59 59">
  <defs>
    <linearGradient id="linear-gradient" x1="0.5" x2="0.5" y2="1" gradientUnits="objectBoundingBox">
      <stop offset="0" stop-color="#fc0b7b"/>
      <stop offset="1" stop-color="#ff0076"/>
    </linearGradient>
    <filter id="Ellipse_18" x="0" y="0" width="59" height="59" filterUnits="userSpaceOnUse">
      <feOffset dy="3" input="SourceAlpha"/>
      <feGaussianBlur stdDeviation="5" result="blur"/>
      <feFlood flood-opacity="0.212"/>
      <feComposite operator="in" in2="blur"/>
      <feComposite in="SourceGraphic"/>
    </filter>
  </defs>
  <g id="heart" transform="translate(-9 -299)">
    <g transform="matrix(1, 0, 0, 1, 9, 299)" filter="url(#Ellipse_18)">
      <circle id="Ellipse_18-2" data-name="Ellipse 18" cx="14.5" cy="14.5" r="14.5" transform="translate(15 12)" fill="url(#linear-gradient)"/>
    </g>
    <path id="Union_1" data-name="Union 1" d="M5.555,10.271C2.868,8.591,0,6.575,0,3.907,0,1.342,1.674,0,3.327,0A3.2,3.2,0,0,1,5.866,1.269,3.2,3.2,0,0,1,8.4,0c1.653,0,3.327,1.342,3.327,3.907,0,2.668-2.867,4.684-5.555,6.363a.587.587,0,0,1-.621,0Z" transform="translate(33.018 320.239)" fill="#fff"/>
  </g>
</svg>
